# Exported from ProBuilder
# http://www.procore3d.com/probuilder
# 1/16/2019 9:58:41 AM

mtllib ./Container.mtl
o Container

g Container
v 1.700281 -1 -0.7963638
v 1.700281 -1 -1
v 1.700281 -0.8033485 -1
v 1.700281 -0.8033485 -0.7963638
v -1.700281 -0.8033485 -1
v -1.700281 -1 -0.7963638
v -1.700281 -0.8033485 -0.7963638
v -1.700281 -1 -1
v 1.700281 0.8209267 -1
v 1.700281 0.8209267 -0.7963638
v 1.700281 1 -1
v 1.700281 1 -0.7963638
v -1.700281 0.8209267 -1
v -1.700281 0.8209267 -0.7963638
v -1.700281 1 -1
v -1.700281 1 -0.7963638
v 1.700281 -1 1
v 1.700281 -1 0.7990074
v 1.700281 -0.8033485 0.7990074
v 1.700281 -0.8033485 1
v -1.700281 -0.8033485 0.7990074
v -1.700281 -1 1
v -1.700281 -0.8033485 1
v -1.700281 -1 0.7990074
v 1.700281 0.8209267 0.7990074
v 1.700281 0.8209267 1
v 1.700281 1 1
v 1.700281 1 0.7990074
v -1.700281 0.8209267 0.7990074
v -1.700281 0.8209267 1
v -1.700281 1 1
v -1.700281 1 0.7990074
v -1.700281 -1 1
v -1.515614 -1 1
v -1.515614 -0.8033485 1
v -1.700281 -0.8033485 1
v -1.515614 -0.8033485 -1
v -1.700281 -1 -1
v -1.700281 -0.8033485 -1
v -1.515614 -1 -1
v -1.515614 0.8209267 1
v -1.700281 0.8209267 1
v -1.515614 1 1
v -1.700281 1 1
v -1.515614 0.8209267 -1
v -1.700281 0.8209267 -1
v -1.515614 1 -1
v -1.700281 1 -1
v -1.515614 1 -1
v -1.700281 1 -1
v -1.700281 1 -0.7963638
v -1.515614 1 -0.7963638
v -1.700281 -1 -0.7963638
v -1.515614 -1 -1
v -1.515614 -1 -0.7963638
v -1.700281 -1 -1
v -1.700281 1 0.7990074
v -1.515614 1 0.7990074
v -1.700281 1 1
v -1.515614 1 1
v -1.700281 -1 0.7990074
v -1.515614 -1 0.7990074
v -1.700281 -1 1
v -1.515614 -1 1
v 1.475728 -1 1
v 1.475728 -0.8033485 1
v 1.700281 -1 1
v 1.700281 -0.8033485 1
v 1.475728 -0.8033485 -1
v 1.475728 -1 -1
v 1.700281 -0.8033485 -1
v 1.700281 -1 -1
v 1.475728 0.8209267 1
v 1.700281 0.8209267 1
v 1.475728 1 1
v 1.700281 1 1
v 1.475728 0.8209267 -1
v 1.700281 0.8209267 -1
v 1.475728 1 -1
v 1.700281 1 -1
v 1.700281 1 -1
v 1.475728 1 -1
v 1.475728 1 -0.7963638
v 1.700281 1 -0.7963638
v 1.475728 -1 -0.7963638
v 1.700281 -1 -1
v 1.700281 -1 -0.7963638
v 1.475728 -1 -1
v 1.475728 1 0.7990074
v 1.700281 1 0.7990074
v 1.475728 1 1
v 1.700281 1 1
v 1.475728 -1 0.7990074
v 1.700281 -1 0.7990074
v 1.475728 -1 1
v 1.700281 -1 1
v -1.515614 0.8209267 -1
v 1.475728 0.8209267 -1
v -1.515614 0.8209267 -0.7999992
v 1.475728 0.8209267 -0.7999992
v 1.475728 0.8209267 -1
v 1.475728 -0.8033485 -1
v 1.475728 0.8209267 -0.7999992
v 1.475728 -0.8033485 -0.7999992
v 1.475728 -0.8033485 -1
v -1.515614 -0.8033485 -1
v 1.475728 -0.8033485 -0.7999992
v -1.515614 -0.8033485 -0.7999992
v -1.515614 -0.8033485 -1
v -1.515614 0.8209267 -1
v -1.515614 -0.8033485 -0.7999992
v -1.515614 0.8209267 -0.7999992
v -1.700281 -0.8033485 0.7990074
v -1.700281 0.8209267 0.7990074
v -1.500282 -0.8033485 0.7990074
v -1.500282 0.8209267 0.7990074
v -1.700281 0.8209267 0.7990074
v -1.700281 0.8209267 -0.7963638
v -1.500282 0.8209267 0.7990074
v -1.500282 0.8209267 -0.7963638
v -1.700281 0.8209267 -0.7963638
v -1.700281 -0.8033485 -0.7963638
v -1.500282 0.8209267 -0.7963638
v -1.500282 -0.8033485 -0.7963638
v -1.700281 -0.8033485 -0.7963638
v -1.700281 -0.8033485 0.7990074
v -1.500282 -0.8033485 -0.7963638
v -1.500282 -0.8033485 0.7990074
v -1.515614 -0.8033485 1
v 1.475728 -0.8033485 1
v -1.515614 -0.8033485 0.7999985
v 1.475728 -0.8033485 0.7999985
v -1.515614 0.8209267 1
v -1.515614 -0.8033485 1
v -1.515614 0.8209267 0.7999985
v -1.515614 -0.8033485 0.7999985
v 1.475728 -0.8033485 1
v 1.475728 0.8209267 1
v 1.475728 -0.8033485 0.7999985
v 1.475728 0.8209267 0.7999985
v 1.475728 0.8209267 1
v -1.515614 0.8209267 1
v 1.475728 0.8209267 0.7999985
v -1.515614 0.8209267 0.7999985
v 1.700281 -0.8033485 0.7990074
v 1.700281 -0.8033485 -0.7963638
v 1.500282 -0.8033485 0.7990074
v 1.500282 -0.8033485 -0.7963638
v 1.700281 -0.8033485 -0.7963638
v 1.700281 0.8209267 -0.7963638
v 1.500282 -0.8033485 -0.7963638
v 1.500282 0.8209267 -0.7963638
v 1.700281 0.8209267 0.7990074
v 1.700281 -0.8033485 0.7990074
v 1.500282 0.8209267 0.7990074
v 1.500282 -0.8033485 0.7990074
v 1.700281 0.8209267 -0.7963638
v 1.700281 0.8209267 0.7990074
v 1.500282 0.8209267 -0.7963638
v 1.500282 0.8209267 0.7990074
v 1.475728 1 -0.7963638
v -1.515614 1 -0.7963638
v 1.475728 0.7999985 -0.7963638
v -1.515614 0.7999985 -0.7963638
v -1.515614 1 -0.7963638
v -1.515614 1 0.7990074
v -1.515614 0.7999985 -0.7963638
v -1.515614 0.7999985 0.7990074
v 1.475728 1 0.7990074
v 1.475728 1 -0.7963638
v 1.475728 0.7999985 0.7990074
v 1.475728 0.7999985 -0.7963638
v -1.515614 1 0.7990074
v 1.475728 1 0.7990074
v -1.515614 0.7999985 0.7990074
v 1.475728 0.7999985 0.7990074
v 1.475728 -1 -0.7963638
v 1.475728 -1 0.7990074
v 1.475728 -0.7999985 -0.7963638
v 1.475728 -0.7999985 0.7990074
v 1.475728 -1 0.7990074
v -1.515614 -1 0.7990074
v 1.475728 -0.7999985 0.7990074
v -1.515614 -0.7999985 0.7990074
v -1.515614 -1 0.7990074
v -1.515614 -1 -0.7963638
v -1.515614 -0.7999985 0.7990074
v -1.515614 -0.7999985 -0.7963638
v -1.515614 -1 -0.7963638
v 1.475728 -1 -0.7963638
v -1.515614 -0.7999985 -0.7963638
v 1.475728 -0.7999985 -0.7963638
v 1.500282 -0.8033485 0.7990074
v 1.500282 -0.8033485 -0.7963638
v 1.500282 0.8209267 -0.7963638
v 1.500282 0.8209267 0.7990074
v -1.500282 0.8209267 -0.7963638
v -1.500282 -0.8033485 0.7990074
v -1.500282 0.8209267 0.7990074
v -1.500282 -0.8033485 -0.7963638
v -1.515614 -0.8033485 0.7999985
v 1.475728 -0.8033485 0.7999985
v -1.515614 0.8209267 0.7999985
v 1.475728 0.8209267 0.7999985
v -1.515614 0.8209267 -0.7999992
v 1.475728 0.8209267 -0.7999992
v 1.475728 -0.8033485 -0.7999992
v -1.515614 -0.8033485 -0.7999992
v 1.475728 0.7999985 -0.7963638
v -1.515614 0.7999985 -0.7963638
v -1.515614 0.7999985 0.7990074
v 1.475728 0.7999985 0.7990074
v -1.515614 -0.7999985 0.7990074
v 1.475728 -0.7999985 -0.7963638
v 1.475728 -0.7999985 0.7990074
v -1.515614 -0.7999985 -0.7963638

vn 1 0 0
vn 1 0 0
vn 1 0 0
vn 1 0 0
vn -1 0 0
vn -1 0 0
vn -1 0 0
vn -1 0 0
vn 1 0 0
vn 1 0 0
vn 1 0 0
vn 1 0 0
vn -1 0 0
vn -1 0 0
vn -1 0 0
vn -1 0 0
vn 1 0 0
vn 1 0 0
vn 1 0 0
vn 1 0 0
vn -1 0 0
vn -1 0 0
vn -1 0 0
vn -1 0 0
vn 1 0 0
vn 1 0 0
vn 1 0 0
vn 1 0 0
vn -1 0 0
vn -1 0 0
vn -1 0 0
vn -1 0 0
vn 0 0 1
vn 0 0 1
vn 0 0 1
vn 0 0 1
vn 0 0 -1
vn 0 0 -1
vn 0 0 -1
vn 0 0 -1
vn 0 0 1
vn 0 0 1
vn 0 0 1
vn 0 0 1
vn 0 0 -1
vn 0 0 -1
vn 0 0 -1
vn 0 0 -1
vn 0 1 0
vn 0 1 0
vn 0 1 0
vn 0 1 0
vn 0 -1 0
vn 0 -1 0
vn 0 -1 0
vn 0 -1 0
vn 0 1 0
vn 0 1 0
vn 0 1 0
vn 0 1 0
vn 0 -1 0
vn 0 -1 0
vn 0 -1 0
vn 0 -1 0
vn 0 0 1
vn 0 0 1
vn 0 0 1
vn 0 0 1
vn 0 0 -1
vn 0 0 -1
vn 0 0 -1
vn 0 0 -1
vn 0 0 1
vn 0 0 1
vn 0 0 1
vn 0 0 1
vn 0 0 -1
vn 0 0 -1
vn 0 0 -1
vn 0 0 -1
vn 0 1 0
vn 0 1 0
vn 0 1 0
vn 0 1 0
vn 0 -1 0
vn 0 -1 0
vn 0 -1 0
vn 0 -1 0
vn 0 1 0
vn 0 1 0
vn 0 1 0
vn 0 1 0
vn 0 -1 0
vn 0 -1 0
vn 0 -1 0
vn 0 -1 0
vn 0 -1 0
vn 0 -1 0
vn 0 -1 0
vn 0 -1 0
vn -1 0 0
vn -1 0 0
vn -1 0 0
vn -1 0 0
vn 0 1 0
vn 0 1 0
vn 0 1 0
vn 0 1 0
vn 1 0 0
vn 1 0 0
vn 1 0 0
vn 1 0 0
vn 0 0 -1
vn 0 0 -1
vn 0 0 -1
vn 0 0 -1
vn 0 -1 0
vn 0 -1 0
vn 0 -1 0
vn 0 -1 0
vn 0 0 1
vn 0 0 1
vn 0 0 1
vn 0 0 1
vn 0 1 0
vn 0 1 0
vn 0 1 0
vn 0 1 0
vn 0 1 0
vn 0 1 0
vn 0 1 0
vn 0 1 0
vn 1 0 0
vn 1 0 0
vn 1 0 0
vn 1 0 0
vn -1 0 0
vn -1 0 0
vn -1 0 0
vn -1 0 0
vn 0 -1 0
vn 0 -1 0
vn 0 -1 0
vn 0 -1 0
vn 0 1 0
vn 0 1 0
vn 0 1 0
vn 0 1 0
vn 0 0 1
vn 0 0 1
vn 0 0 1
vn 0 0 1
vn 0 0 -1
vn 0 0 -1
vn 0 0 -1
vn 0 0 -1
vn 0 -1 0
vn 0 -1 0
vn 0 -1 0
vn 0 -1 0
vn 0 0 1
vn 0 0 1
vn 0 0 1
vn 0 0 1
vn 1 0 0
vn 1 0 0
vn 1 0 0
vn 1 0 0
vn -1 0 0
vn -1 0 0
vn -1 0 0
vn -1 0 0
vn 0 0 -1
vn 0 0 -1
vn 0 0 -1
vn 0 0 -1
vn -1 0 0
vn -1 0 0
vn -1 0 0
vn -1 0 0
vn 0 0 -1
vn 0 0 -1
vn 0 0 -1
vn 0 0 -1
vn 1 0 0
vn 1 0 0
vn 1 0 0
vn 1 0 0
vn 0 0 1
vn 0 0 1
vn 0 0 1
vn 0 0 1
vn 1 0 0
vn 1 0 0
vn 1 0 0
vn 1 0 0
vn -1 0 0
vn -1 0 0
vn -1 0 0
vn -1 0 0
vn 0 0 1
vn 0 0 1
vn 0 0 1
vn 0 0 1
vn 0 0 -1
vn 0 0 -1
vn 0 0 -1
vn 0 0 -1
vn 0 1 0
vn 0 1 0
vn 0 1 0
vn 0 1 0
vn 0 -1 0
vn 0 -1 0
vn 0 -1 0
vn 0 -1 0

vt -0.3981819 -0.5
vt -0.5 -0.5
vt -0.5 -0.4016743
vt -0.3981819 -0.4016743
vt -0.5 -0.4016743
vt -0.3981819 -0.5
vt -0.3981819 -0.4016743
vt -0.5 -0.5
vt -0.5 0.4104633
vt -0.3981819 0.4104633
vt -0.5 0.5
vt -0.3981819 0.5
vt -0.5 0.4104633
vt -0.3981819 0.4104633
vt -0.5 0.5
vt -0.3981819 0.5
vt 0.5 -0.5
vt 0.3995037 -0.5
vt 0.3995037 -0.4016743
vt 0.5 -0.4016743
vt 0.3995037 -0.4016743
vt 0.5 -0.5
vt 0.5 -0.4016743
vt 0.3995037 -0.5
vt 0.3995037 0.4104633
vt 0.5 0.4104633
vt 0.5 0.5
vt 0.3995037 0.5
vt 0.3995037 0.4104633
vt 0.5 0.4104633
vt 0.5 0.5
vt 0.3995037 0.5
vt 0.8501406 -0.5
vt 0.7578068 -0.5
vt 0.7578068 -0.4016743
vt 0.8501406 -0.4016743
vt 0.7578068 -0.4016743
vt 0.8501406 -0.5
vt 0.8501406 -0.4016743
vt 0.7578068 -0.5
vt 0.7578068 0.4104633
vt 0.8501406 0.4104633
vt 0.7578068 0.5
vt 0.8501406 0.5
vt 0.7578068 0.4104633
vt 0.8501406 0.4104633
vt 0.7578068 0.5
vt 0.8501406 0.5
vt -0.7578068 -0.5
vt -0.8501406 -0.5
vt -0.8501406 -0.3981819
vt -0.7578068 -0.3981819
vt -0.8501406 -0.3981819
vt -0.7578068 -0.5
vt -0.7578068 -0.3981819
vt -0.8501406 -0.5
vt -0.8501406 0.3995037
vt -0.7578068 0.3995037
vt -0.8501406 0.5
vt -0.7578068 0.5
vt -0.8501406 0.3995037
vt -0.7578068 0.3995037
vt -0.8501406 0.5
vt -0.7578068 0.5
vt -0.737864 -0.5
vt -0.737864 -0.4016743
vt -0.8501406 -0.5
vt -0.8501406 -0.4016743
vt -0.737864 -0.4016743
vt -0.737864 -0.5
vt -0.8501406 -0.4016743
vt -0.8501406 -0.5
vt -0.737864 0.4104633
vt -0.8501406 0.4104633
vt -0.737864 0.5
vt -0.8501406 0.5
vt -0.737864 0.4104633
vt -0.8501406 0.4104633
vt -0.737864 0.5
vt -0.8501406 0.5
vt 0.8501406 -0.5
vt 0.737864 -0.5
vt 0.737864 -0.3981819
vt 0.8501406 -0.3981819
vt 0.737864 -0.3981819
vt 0.8501406 -0.5
vt 0.8501406 -0.3981819
vt 0.737864 -0.5
vt 0.737864 0.3995037
vt 0.8501406 0.3995037
vt 0.737864 0.5
vt 0.8501406 0.5
vt 0.737864 0.3995037
vt 0.8501406 0.3995037
vt 0.737864 0.5
vt 0.8501406 0.5
vt 0.7578068 -0.5
vt -0.737864 -0.5
vt 0.7578068 -0.3999996
vt -0.737864 -0.3999996
vt 0.5 0.4104633
vt 0.5 -0.4016743
vt 0.3999996 0.4104633
vt 0.3999996 -0.4016743
vt 0.737864 -0.5
vt -0.7578068 -0.5
vt 0.737864 -0.3999996
vt -0.7578068 -0.3999996
vt -0.5 -0.4016743
vt -0.5 0.4104633
vt -0.3999996 -0.4016743
vt -0.3999996 0.4104633
vt -0.8501406 -0.4016743
vt -0.8501406 0.4104633
vt -0.7501408 -0.4016743
vt -0.7501408 0.4104633
vt 0.8501406 0.3995037
vt 0.8501406 -0.3981819
vt 0.7501408 0.3995037
vt 0.7501408 -0.3981819
vt 0.8501406 0.4104633
vt 0.8501406 -0.4016743
vt 0.7501408 0.4104633
vt 0.7501408 -0.4016743
vt -0.8501406 -0.3981819
vt -0.8501406 0.3995037
vt -0.7501408 -0.3981819
vt -0.7501408 0.3995037
vt -0.7578068 0.5
vt 0.737864 0.5
vt -0.7578068 0.3999993
vt 0.737864 0.3999993
vt 0.5 0.4104633
vt 0.5 -0.4016743
vt 0.3999993 0.4104633
vt 0.3999993 -0.4016743
vt -0.5 -0.4016743
vt -0.5 0.4104633
vt -0.3999993 -0.4016743
vt -0.3999993 0.4104633
vt -0.737864 0.5
vt 0.7578068 0.5
vt -0.737864 0.3999993
vt 0.7578068 0.3999993
vt 0.8501406 0.3995037
vt 0.8501406 -0.3981819
vt 0.7501408 0.3995037
vt 0.7501408 -0.3981819
vt -0.8501406 -0.4016743
vt -0.8501406 0.4104633
vt -0.7501408 -0.4016743
vt -0.7501408 0.4104633
vt 0.8501406 0.4104633
vt 0.8501406 -0.4016743
vt 0.7501408 0.4104633
vt 0.7501408 -0.4016743
vt -0.8501406 -0.3981819
vt -0.8501406 0.3995037
vt -0.7501408 -0.3981819
vt -0.7501408 0.3995037
vt -0.737864 0.5
vt 0.7578068 0.5
vt -0.737864 0.3999993
vt 0.7578068 0.3999993
vt -0.3981819 0.5
vt 0.3995037 0.5
vt -0.3981819 0.3999993
vt 0.3995037 0.3999993
vt -0.3995037 0.5
vt 0.3981819 0.5
vt -0.3995037 0.3999993
vt 0.3981819 0.3999993
vt -0.7578068 0.5
vt 0.737864 0.5
vt -0.7578068 0.3999993
vt 0.737864 0.3999993
vt 0.3981819 -0.5
vt -0.3995037 -0.5
vt 0.3981819 -0.3999993
vt -0.3995037 -0.3999993
vt 0.737864 -0.5
vt -0.7578068 -0.5
vt 0.737864 -0.3999993
vt -0.7578068 -0.3999993
vt 0.3995037 -0.5
vt -0.3981819 -0.5
vt 0.3995037 -0.3999993
vt -0.3981819 -0.3999993
vt 0.7578068 -0.5
vt -0.737864 -0.5
vt 0.7578068 -0.3999993
vt -0.737864 -0.3999993
vt 0.3995037 -0.4016743
vt -0.3981819 -0.4016743
vt -0.3981819 0.4104633
vt 0.3995037 0.4104633
vt 0.3981819 0.4104633
vt -0.3995037 -0.4016743
vt -0.3995037 0.4104633
vt 0.3981819 -0.4016743
vt 0.7578068 -0.4016743
vt -0.737864 -0.4016743
vt 0.7578068 0.4104633
vt -0.737864 0.4104633
vt -0.7578068 0.4104633
vt 0.737864 0.4104633
vt 0.737864 -0.4016743
vt -0.7578068 -0.4016743
vt 0.737864 -0.3981819
vt -0.7578068 -0.3981819
vt -0.7578068 0.3995037
vt 0.737864 0.3995037
vt 0.7578068 0.3995037
vt -0.737864 -0.3981819
vt -0.737864 0.3995037
vt 0.7578068 -0.3981819

g Container_0
usemtl ContainerAccent
f 1/1/1 2/2/2 3/3/3
f 4/4/4 1/1/1 3/3/3
f 5/5/5 6/6/6 7/7/7
f 5/5/5 8/8/8 6/6/6
f 4/4/4 3/3/3 9/9/9
f 10/10/10 4/4/4 9/9/9
f 10/10/10 9/9/9 11/11/11
f 12/12/12 10/10/10 11/11/11
f 13/13/13 7/7/7 14/14/14
f 13/13/13 5/5/5 7/7/7
f 15/15/15 14/14/14 16/16/16
f 15/15/15 13/13/13 14/14/14
f 17/17/17 18/18/18 19/19/19
f 20/20/20 17/17/17 19/19/19
f 18/18/18 1/1/1 4/4/4
f 19/19/19 18/18/18 4/4/4
f 21/21/21 22/22/22 23/23/23
f 21/21/21 24/24/24 22/22/22
f 7/7/7 24/24/24 21/21/21
f 7/7/7 6/6/6 24/24/24
f 20/20/20 19/19/19 25/25/25
f 26/26/26 20/20/20 25/25/25
f 26/26/26 25/25/25 27/27/27
f 25/25/25 28/28/28 27/27/27
f 25/25/25 10/10/10 28/28/28
f 10/10/10 12/12/12 28/28/28
f 29/29/29 23/23/23 30/30/30
f 29/29/29 21/21/21 23/23/23
f 31/31/31 32/32/32 29/29/29
f 31/31/31 29/29/29 30/30/30
f 32/32/32 16/16/16 14/14/14
f 32/32/32 14/14/14 29/29/29
f 33/33/33 34/34/34 35/35/35
f 36/36/36 33/33/33 35/35/35
f 37/37/37 38/38/38 39/39/39
f 37/37/37 40/40/40 38/38/38
f 36/36/36 35/35/35 41/41/41
f 42/42/42 36/36/36 41/41/41
f 42/42/42 41/41/41 43/43/43
f 44/44/44 42/42/42 43/43/43
f 45/45/45 39/39/39 46/46/46
f 45/45/45 37/37/37 39/39/39
f 47/47/47 46/46/46 48/48/48
f 47/47/47 45/45/45 46/46/46
f 49/49/49 50/50/50 51/51/51
f 52/52/52 49/49/49 51/51/51
f 53/53/53 54/54/54 55/55/55
f 53/53/53 56/56/56 54/54/54
f 52/52/52 51/51/51 57/57/57
f 58/58/58 52/52/52 57/57/57
f 58/58/58 57/57/57 59/59/59
f 60/60/60 58/58/58 59/59/59
f 61/61/61 55/55/55 62/62/62
f 61/61/61 53/53/53 55/55/55
f 63/63/63 62/62/62 64/64/64
f 63/63/63 61/61/61 62/62/62
f 34/34/34 65/65/65 66/66/66
f 35/35/35 34/34/34 66/66/66
f 65/65/65 67/67/67 68/68/68
f 66/66/66 65/65/65 68/68/68
f 69/69/69 40/40/40 37/37/37
f 69/69/69 70/70/70 40/40/40
f 71/71/71 70/70/70 69/69/69
f 71/71/71 72/72/72 70/70/70
f 66/66/66 68/68/68 73/73/73
f 68/68/68 74/74/74 73/73/73
f 41/41/41 73/73/73 75/75/75
f 43/43/43 41/41/41 75/75/75
f 73/73/73 74/74/74 76/76/76
f 75/75/75 73/73/73 76/76/76
f 77/77/77 78/78/78 71/71/71
f 77/77/77 71/71/71 69/69/69
f 79/79/79 45/45/45 47/47/47
f 79/79/79 77/77/77 45/45/45
f 80/80/80 77/77/77 79/79/79
f 80/80/80 78/78/78 77/77/77
f 81/81/81 82/82/82 83/83/83
f 84/84/84 81/81/81 83/83/83
f 82/82/82 49/49/49 52/52/52
f 83/83/83 82/82/82 52/52/52
f 85/85/85 86/86/86 87/87/87
f 85/85/85 88/88/88 86/86/86
f 55/55/55 88/88/88 85/85/85
f 55/55/55 54/54/54 88/88/88
f 84/84/84 83/83/83 89/89/89
f 90/90/90 84/84/84 89/89/89
f 90/90/90 89/89/89 91/91/91
f 92/92/92 90/90/90 91/91/91
f 89/89/89 58/58/58 60/60/60
f 91/91/91 89/89/89 60/60/60
f 93/93/93 87/87/87 94/94/94
f 93/93/93 85/85/85 87/87/87
f 95/95/95 94/94/94 96/96/96
f 95/95/95 93/93/93 94/94/94
f 64/64/64 93/93/93 95/95/95
f 64/64/64 62/62/62 93/93/93
f 97/97/97 98/98/98 99/99/99
f 98/98/98 100/100/100 99/99/99
f 101/101/101 102/102/102 103/103/103
f 102/102/102 104/104/104 103/103/103
f 105/105/105 106/106/106 107/107/107
f 106/106/106 108/108/108 107/107/107
f 109/109/109 110/110/110 111/111/111
f 110/110/110 112/112/112 111/111/111
f 113/113/113 114/114/114 115/115/115
f 114/114/114 116/116/116 115/115/115
f 117/117/117 118/118/118 119/119/119
f 118/118/118 120/120/120 119/119/119
f 121/121/121 122/122/122 123/123/123
f 122/122/122 124/124/124 123/123/123
f 125/125/125 126/126/126 127/127/127
f 126/126/126 128/128/128 127/127/127
f 129/129/129 130/130/130 131/131/131
f 130/130/130 132/132/132 131/131/131
f 133/133/133 134/134/134 135/135/135
f 134/134/134 136/136/136 135/135/135
f 137/137/137 138/138/138 139/139/139
f 138/138/138 140/140/140 139/139/139
f 141/141/141 142/142/142 143/143/143
f 142/142/142 144/144/144 143/143/143
f 145/145/145 146/146/146 147/147/147
f 146/146/146 148/148/148 147/147/147
f 149/149/149 150/150/150 151/151/151
f 150/150/150 152/152/152 151/151/151
f 153/153/153 154/154/154 155/155/155
f 154/154/154 156/156/156 155/155/155
f 157/157/157 158/158/158 159/159/159
f 158/158/158 160/160/160 159/159/159
f 161/161/161 162/162/162 163/163/163
f 162/162/162 164/164/164 163/163/163
f 165/165/165 166/166/166 167/167/167
f 166/166/166 168/168/168 167/167/167
f 169/169/169 170/170/170 171/171/171
f 170/170/170 172/172/172 171/171/171
f 173/173/173 174/174/174 175/175/175
f 174/174/174 176/176/176 175/175/175
f 177/177/177 178/178/178 179/179/179
f 178/178/178 180/180/180 179/179/179
f 181/181/181 182/182/182 183/183/183
f 182/182/182 184/184/184 183/183/183
f 185/185/185 186/186/186 187/187/187
f 186/186/186 188/188/188 187/187/187
f 189/189/189 190/190/190 191/191/191
f 190/190/190 192/192/192 191/191/191

g Container_1
usemtl Container
f 193/193/193 194/194/194 195/195/195
f 196/196/196 193/193/193 195/195/195
f 197/197/197 198/198/198 199/199/199
f 197/197/197 200/200/200 198/198/198
f 201/201/201 202/202/202 203/203/203
f 202/202/202 204/204/204 203/203/203
f 205/205/205 206/206/206 207/207/207
f 205/205/205 207/207/207 208/208/208
f 209/209/209 210/210/210 211/211/211
f 212/212/212 209/209/209 211/211/211
f 213/213/213 214/214/214 215/215/215
f 213/213/213 216/216/216 214/214/214

