# Exported from ProBuilder
# http://www.procore3d.com/probuilder
# 1/16/2019 3:30:56 PM

mtllib ./Hook.mtl
o Hook

g Hook
v -0.64 0.2330036 0.24
v 0.64 0.2330036 0.24
v -0.64 0.2330036 -0.24
v 0.64 0.2330036 -0.24
v -0.64 0.2330036 0.24
v -0.4 -0.4054842 0.24
v -0.25 -0.4054842 0.24
v 0 -0.4054842 0.24
v 0.25 -0.4054842 0.24
v 0.4 -0.4054842 0.24
v 0.64 0.2330036 0.24
v 0.64 0.2330036 0.24
v 0.4 -0.4054842 0.24
v 0.4 -0.4054842 0.15
v 0.4 -0.4054842 0
v 0.4 -0.4054842 -0.15
v 0.4 -0.4054842 -0.24
v 0.64 0.2330036 -0.24
v 0 -0.4054842 -0.24
v -0.64 0.2330036 -0.24
v 0.64 0.2330036 -0.24
v 0.25 -0.4054842 -0.24
v 0.4 -0.4054842 -0.24
v -0.25 -0.4054842 -0.24
v -0.4 -0.4054842 -0.24
v -0.64 0.2330036 0.24
v -0.64 0.2330036 -0.24
v -0.4 -0.4054842 0
v -0.4 -0.4054842 -0.15
v -0.4 -0.4054842 -0.24
v -0.4 -0.4054842 0.15
v -0.4 -0.4054842 0.24
v -0.2376569 -0.4054842 -0.1425941
v 0 -0.4054842 -0.24
v 3.507068E-10 -0.4054842 -0.1425941
v -0.25 -0.4054842 -0.24
v -0.07791802 -0.8676825 -7.74873E-10
v 0 -0.8676825 -0.05585154
v 0 -0.8676825 -7.74873E-10
v -0.07791802 -0.8676825 -0.05585154
v -0.4 -0.4054842 0
v -0.2376569 -0.4054842 2.104241E-10
v -0.4 -0.4054842 -0.15
v -0.4 -0.4054842 -0.15
v -0.4 -0.4054842 -0.24
v 0.2376569 -0.4054842 -0.1425941
v 0.4 -0.4054842 -0.24
v 0.4 -0.4054842 -0.15
v 0.25 -0.4054842 -0.24
v 0.2376569 -0.4054842 2.104241E-10
v 0.4 -0.4054842 0
v 0.07791802 -0.8676825 -0.05585154
v 0.07791802 -0.8676825 -7.74873E-10
v 0.25 -0.4054842 -0.24
v 0.2376569 -0.4054842 -0.1425941
v 0 -0.4054842 -0.24
v 0.2376569 -0.4054842 0.1425941
v 0.4 -0.4054842 0.15
v 0.2376569 -0.4054842 2.104241E-10
v 0.25 -0.4054842 0.24
v 0.4 -0.4054842 0.15
v 0.4 -0.4054842 0.24
v 0 -0.4054842 0.24
v 3.507068E-10 -0.4054842 0.1425941
v 0 -0.8676825 0.05585154
v 0.07791802 -0.8676825 0.05585154
v -0.07791802 -0.8676825 0.05585154
v -0.25 -0.4054842 0.24
v 0 -0.4054842 0.24
v -0.2376569 -0.4054842 0.1425941
v -0.4 -0.4054842 0.24
v -0.2376569 -0.4054842 0.1425941
v -0.25 -0.4054842 0.24
v -0.4 -0.4054842 0.15
v -0.2376569 -0.4054842 2.104241E-10
v 3.507068E-10 -0.4054842 -0.1425941
v 0.2376569 -0.4054842 -0.1425941
v 6.882637E-10 -0.6266994 -0.1150387
v 0.1917312 -0.6266994 -0.1150387
v -0.2376569 -0.4054842 2.104241E-10
v -0.2376569 -0.4054842 -0.1425941
v -0.1917312 -0.6266994 -4.620538E-11
v -0.1917312 -0.6266994 -0.1150387
v -0.2376569 -0.4054842 -0.1425941
v -0.1917312 -0.6266994 -0.1150387
v 0.2376569 -0.4054842 -0.1425941
v 0.2376569 -0.4054842 2.104241E-10
v 0.1917312 -0.6266994 -0.1150387
v 0.1917312 -0.6266994 -4.620538E-11
v -0.2376569 -0.4054842 0.1425941
v -0.1917312 -0.6266994 0.1150387
v 0.2376569 -0.4054842 0.1425941
v 0.1917312 -0.6266994 0.1150387
v 0.2376569 -0.4054842 0.1425941
v 3.507068E-10 -0.4054842 0.1425941
v 0.1917312 -0.6266994 0.1150387
v 6.882637E-10 -0.6266994 0.1150387
v -0.2376569 -0.4054842 0.1425941
v -0.1917312 -0.6266994 0.1150387
v 6.882637E-10 -0.6266994 -0.1150387
v 0.1917312 -0.6266994 -0.1150387
v 0 -0.8676825 -0.05585154
v 0.07791802 -0.8676825 -0.05585154
v -0.1917312 -0.6266994 -4.620538E-11
v -0.1917312 -0.6266994 -0.1150387
v -0.07791802 -0.8676825 -7.74873E-10
v -0.07791802 -0.8676825 -0.05585154
v -0.1917312 -0.6266994 -0.1150387
v -0.07791802 -0.8676825 -0.05585154
v 0.1917312 -0.6266994 -0.1150387
v 0.1917312 -0.6266994 -4.620538E-11
v 0.07791802 -0.8676825 -0.05585154
v 0.07791802 -0.8676825 -7.74873E-10
v -0.1917312 -0.6266994 0.1150387
v -0.07791802 -0.8676825 0.05585154
v 0.1917312 -0.6266994 0.1150387
v 0.07791802 -0.8676825 0.05585154
v 0.1917312 -0.6266994 0.1150387
v 6.882637E-10 -0.6266994 0.1150387
v 0.07791802 -0.8676825 0.05585154
v 0 -0.8676825 0.05585154
v -0.1917312 -0.6266994 0.1150387
v -0.07791802 -0.8676825 0.05585154

vn 0 1 0
vn 0 1 0
vn 0 1 0
vn 0 1 0
vn 0 0 1
vn 0 0 0.9999999
vn 0 0 1
vn 0 0 1
vn 0 0 1
vn 0 0 0.9999999
vn 0 0 1
vn 0.9360556 -0.3518523 0
vn 0.9360555 -0.3518522 0
vn 0.9360555 -0.3518522 0
vn 0.9360555 -0.3518523 0
vn 0.9360555 -0.3518522 0
vn 0.9360555 -0.3518522 0
vn 0.9360556 -0.3518523 0
vn 0 0 -1
vn 0 0 -1
vn 0 0 -1
vn 0 0 -1
vn 0 0 -0.9999999
vn 0 0 -1
vn 0 0 -0.9999999
vn -0.9360556 -0.3518523 0
vn -0.9360556 -0.3518523 0
vn -0.9360556 -0.3518523 0
vn -0.9360555 -0.3518522 0
vn -0.9360555 -0.3518522 0
vn -0.9360555 -0.3518522 0
vn -0.9360555 -0.3518522 0
vn 0 -1 0
vn 0 -1 0
vn 0 -1 0
vn 0 -0.9999999 0
vn 0 -1 0
vn 0 -1 0
vn 0 -1 0
vn 0 -1 0
vn 0 -1 0
vn 0 -0.9999999 0
vn 0 -1 0
vn 0 -0.9999999 0
vn 0 -1 0
vn 0 -0.9999999 0
vn 0 -0.9999999 0
vn 0 -1 0
vn 0 -0.9999999 0
vn 0 -1 0
vn 0 -1 0
vn 0 -1 0
vn 0 -1 0
vn 0 -1 0
vn 0 -1 0
vn 0 -0.9999999 0
vn 0 -1 0
vn 0 -1 0
vn 0 -0.9999999 0
vn 0 -0.9999999 0
vn 0 -0.9999999 0
vn 0 -1 0
vn 0 -1 0
vn 0 -1 0
vn 0 -1 0
vn 0 -1 0
vn 0 -1 0
vn 0 -1 0
vn 0 -0.9999999 0
vn 0 -1 0
vn 0 -0.9999999 0
vn 0 -0.9999999 0
vn 0 -0.9999999 0
vn 0 -1 0
vn 0 -1 0
vn 0 -0.1236084 -0.9923311
vn 0 -0.1236084 -0.992331
vn 0 -0.1236084 -0.992331
vn 0 -0.1236084 -0.9923311
vn -0.9791224 -0.2032718 0
vn -0.9791223 -0.2032717 0
vn -0.9791223 -0.2032717 0
vn -0.9791223 -0.2032718 0
vn 0 -0.1236084 -0.9923311
vn 0 -0.1236084 -0.992331
vn 0.9791224 -0.2032718 0
vn 0.9791223 -0.2032717 0
vn 0.9791223 -0.2032717 0
vn 0.9791224 -0.2032718 0
vn -0.9791224 -0.2032718 0
vn -0.9791223 -0.2032717 0
vn 0.9791223 -0.2032717 0
vn 0.9791223 -0.2032718 0
vn 0 -0.1236084 0.9923311
vn 0 -0.1236084 0.992331
vn 0 -0.1236084 0.992331
vn 0 -0.1236084 0.992331
vn 0 -0.1236084 0.992331
vn 0 -0.1236084 0.9923311
vn 0 -0.2385186 -0.9711379
vn 0 -0.2385187 -0.971138
vn 0 -0.2385187 -0.971138
vn 0 -0.2385187 -0.971138
vn -0.9042259 -0.4270544 0
vn -0.9042259 -0.4270544 0
vn -0.9042259 -0.4270544 0
vn -0.9042259 -0.4270544 0
vn 0 -0.2385186 -0.9711379
vn 0 -0.2385187 -0.971138
vn 0.9042259 -0.4270544 0
vn 0.9042259 -0.4270544 0
vn 0.9042259 -0.4270544 0
vn 0.9042259 -0.4270544 0
vn -0.9042259 -0.4270544 0
vn -0.9042259 -0.4270544 0
vn 0.9042259 -0.4270544 0
vn 0.9042259 -0.4270544 0
vn 0 -0.2385186 0.9711379
vn 0 -0.2385187 0.971138
vn 0 -0.2385187 0.971138
vn 0 -0.2385187 0.9711379
vn 0 -0.2385187 0.971138
vn 0 -0.2385187 0.971138

vt -0.64 0.4
vt 0.64 0.4
vt -0.64 -0.4
vt 0.64 -0.4
vt 0.64 0.2330036
vt 0.4 -0.4054842
vt 0.25 -0.4054842
vt -5.620493E-16 -0.4054842
vt -0.25 -0.4054842
vt -0.4 -0.4054842
vt -0.64 0.2330036
vt 0.4 0.4432898
vt 0.4 -0.2388148
vt 0.25 -0.2388148
vt 4.68041E-09 -0.2388148
vt -0.25 -0.2388148
vt -0.4 -0.2388148
vt -0.4 0.4432898
vt 2.810246E-16 -0.4054842
vt -0.64 0.2330036
vt 0.64 0.2330036
vt 0.25 -0.4054842
vt 0.4 -0.4054842
vt -0.25 -0.4054842
vt -0.4 -0.4054842
vt -0.4 0.4432898
vt 0.4 0.4432898
vt -2.340205E-09 -0.2388149
vt 0.25 -0.2388149
vt 0.4 -0.2388149
vt -0.25 -0.2388149
vt -0.4 -0.2388149
vt -0.2376569 -0.2376569
vt -9.086028E-17 -0.4
vt 3.507067E-10 -0.2376569
vt -0.25 -0.4
vt 0.07791802 -1.291455E-09
vt 0 -0.09308589
vt 0 -1.291455E-09
vt 0.07791802 -0.09308589
vt -0.4 -3.113857E-15
vt -0.2376569 3.507037E-10
vt -0.4 -0.25
vt -0.4 -0.25
vt -0.4 -0.4
vt 0.2376569 -0.2376569
vt 0.4 -0.4
vt 0.4 -0.25
vt 0.25 -0.4
vt 0.2376569 3.507037E-10
vt 0.4 -3.113857E-15
vt -0.07791802 -0.09308589
vt -0.07791802 -1.291455E-09
vt 0.25 -0.4
vt 0.2376569 -0.2376569
vt -9.086028E-17 -0.4
vt 0.2376569 0.2376569
vt 0.4 0.25
vt 0.2376569 3.507037E-10
vt 0.25 0.4
vt 0.4 0.25
vt 0.4 0.4
vt -9.086028E-17 0.4
vt 3.507067E-10 0.2376569
vt 0 0.09308589
vt -0.07791802 0.09308589
vt 0.07791802 0.09308589
vt -0.25 0.4
vt -9.086028E-17 0.4
vt -0.2376569 0.2376569
vt -0.4 0.4
vt -0.2376569 0.2376569
vt -0.25 0.4
vt -0.4 0.25
vt -0.2376569 3.507037E-10
vt 3.507068E-10 -0.3487097
vt 0.2376569 -0.3487097
vt 6.882637E-10 -0.5746419
vt 0.1917312 -0.5746419
vt -3.507068E-10 -0.3487097
vt 0.2376569 -0.3487097
vt 7.700895E-11 -0.5746419
vt 0.1917312 -0.5746419
vt -0.2376569 -0.3487097
vt -0.1917312 -0.5746419
vt -0.2376569 -0.3487097
vt 3.507068E-10 -0.3487097
vt -0.1917312 -0.5746419
vt -7.700895E-11 -0.5746419
vt -0.2376569 -0.3487097
vt -0.1917312 -0.5746419
vt 0.2376569 -0.3487097
vt 0.1917312 -0.5746419
vt -0.2376569 -0.3487097
vt -3.507068E-10 -0.3487097
vt -0.1917312 -0.5746419
vt -6.882637E-10 -0.5746419
vt 0.2376569 -0.3487097
vt 0.1917312 -0.5746419
vt 6.882637E-10 -0.5073535
vt 0.1917312 -0.5073535
vt 0 -0.767745
vt 0.07791802 -0.767745
vt 7.700895E-11 -0.4847982
vt 0.1917312 -0.4847982
vt 1.291455E-09 -0.7513058
vt 0.09308589 -0.7513058
vt -0.1917312 -0.5073535
vt -0.07791802 -0.767745
vt -0.1917312 -0.4847982
vt -7.700895E-11 -0.4847982
vt -0.09308589 -0.7513058
vt -1.291455E-09 -0.7513058
vt -0.1917312 -0.4847982
vt -0.09308589 -0.7513058
vt 0.1917312 -0.4847982
vt 0.09308589 -0.7513058
vt -0.1917312 -0.5073535
vt -6.882637E-10 -0.5073535
vt -0.07791802 -0.767745
vt 0 -0.767745
vt 0.1917312 -0.5073535
vt 0.07791802 -0.767745

g Hook
usemtl Dashboard
f 1/1/1 2/2/2 3/3/3
f 2/2/2 4/4/4 3/3/3
f 5/5/5 6/6/6 7/7/7
f 5/5/5 7/7/7 8/8/8
f 9/9/9 10/10/10 11/11/11
f 8/8/8 9/9/9 11/11/11
f 11/11/11 5/5/5 8/8/8
f 12/12/12 13/13/13 14/14/14
f 12/12/12 14/14/14 15/15/15
f 16/16/16 17/17/17 18/18/18
f 15/15/15 16/16/16 18/18/18
f 15/15/15 18/18/18 12/12/12
f 19/19/19 20/20/20 21/21/21
f 21/21/21 22/22/22 19/19/19
f 21/21/21 23/23/23 22/22/22
f 19/19/19 24/24/24 20/20/20
f 24/24/24 25/25/25 20/20/20
f 26/26/26 27/27/27 28/28/28
f 27/27/27 29/29/29 28/28/28
f 27/27/27 30/30/30 29/29/29
f 28/28/28 31/31/31 26/26/26
f 31/31/31 32/32/32 26/26/26
f 33/33/33 34/34/34 35/35/35
f 33/33/33 36/36/36 34/34/34
f 37/37/37 38/38/38 39/39/39
f 37/37/37 40/40/40 38/38/38
f 41/41/41 33/33/33 42/42/42
f 41/41/41 43/43/43 33/33/33
f 44/44/44 36/36/36 33/33/33
f 44/44/44 45/45/45 36/36/36
f 46/46/46 47/47/47 48/48/48
f 46/46/46 49/49/49 47/47/47
f 50/50/50 48/48/48 51/51/51
f 50/50/50 46/46/46 48/48/48
f 39/39/39 52/52/52 53/53/53
f 39/39/39 38/38/38 52/52/52
f 35/35/35 54/54/54 55/55/55
f 35/35/35 56/56/56 54/54/54
f 57/57/57 51/51/51 58/58/58
f 57/57/57 59/59/59 51/51/51
f 60/60/60 61/61/61 62/62/62
f 60/60/60 57/57/57 61/61/61
f 63/63/63 57/57/57 60/60/60
f 63/63/63 64/64/64 57/57/57
f 65/65/65 53/53/53 66/66/66
f 65/65/65 39/39/39 53/53/53
f 67/67/67 39/39/39 65/65/65
f 67/67/67 37/37/37 39/39/39
f 68/68/68 64/64/64 69/69/69
f 68/68/68 70/70/70 64/64/64
f 71/71/71 72/72/72 73/73/73
f 71/71/71 74/74/74 72/72/72
f 74/74/74 75/75/75 72/72/72
f 74/74/74 41/41/41 75/75/75
f 76/76/76 77/77/77 78/78/78
f 77/77/77 79/79/79 78/78/78
f 80/80/80 81/81/81 82/82/82
f 81/81/81 83/83/83 82/82/82
f 84/84/84 76/76/76 85/85/85
f 76/76/76 78/78/78 85/85/85
f 86/86/86 87/87/87 88/88/88
f 87/87/87 89/89/89 88/88/88
f 90/90/90 80/80/80 91/91/91
f 80/80/80 82/82/82 91/91/91
f 87/87/87 92/92/92 89/89/89
f 92/92/92 93/93/93 89/89/89
f 94/94/94 95/95/95 96/96/96
f 95/95/95 97/97/97 96/96/96
f 95/95/95 98/98/98 97/97/97
f 98/98/98 99/99/99 97/97/97
f 100/100/100 101/101/101 102/102/102
f 101/101/101 103/103/103 102/102/102
f 104/104/104 105/105/105 106/106/106
f 105/105/105 107/107/107 106/106/106
f 108/108/108 100/100/100 109/109/109
f 100/100/100 102/102/102 109/109/109
f 110/110/110 111/111/111 112/112/112
f 111/111/111 113/113/113 112/112/112
f 114/114/114 104/104/104 115/115/115
f 104/104/104 106/106/106 115/115/115
f 111/111/111 116/116/116 113/113/113
f 116/116/116 117/117/117 113/113/113
f 118/118/118 119/119/119 120/120/120
f 119/119/119 121/121/121 120/120/120
f 119/119/119 122/122/122 121/121/121
f 122/122/122 123/123/123 121/121/121

